<svg width="131" height="64" viewBox="0 0 131 64" fill="none" xmlns="http://www.w3.org/2000/svg">
<circle cx="28" cy="31" r="26" fill="#F2F2F2" stroke="#4077F1" stroke-width="4"/>
<path d="M43 42L61 57" stroke="#4077F1" stroke-width="4" stroke-linecap="round"/>
<path d="M8 31.5714H14.087L19.3043 20L25.3913 44L30.6087 26.4286L36.6957 37.1429L39.3043 29H48" stroke="#07235F" stroke-width="2" stroke-linecap="round"/>
<path d="M63.8182 7.72727H67.1818L75.0909 27.0455H75.3636L83.2727 7.72727H86.6364V31H84V13.3182H83.7727L76.5 31H73.9545L66.6818 13.3182H66.4545V31H63.8182V7.72727ZM99.2415 31.3636C97.5597 31.3636 96.1089 30.9924 94.8892 30.25C93.6771 29.5 92.7415 28.4545 92.0824 27.1136C91.4309 25.7652 91.1051 24.197 91.1051 22.4091C91.1051 20.6212 91.4309 19.0455 92.0824 17.6818C92.7415 16.3106 93.6581 15.2424 94.8324 14.4773C96.0142 13.7045 97.393 13.3182 98.9688 13.3182C99.8778 13.3182 100.776 13.4697 101.662 13.7727C102.548 14.0758 103.355 14.5682 104.082 15.25C104.81 15.9242 105.389 16.8182 105.821 17.9318C106.253 19.0455 106.469 20.4167 106.469 22.0455V23.1818H93.0142V20.8636H103.741C103.741 19.8788 103.545 19 103.151 18.2273C102.764 17.4545 102.211 16.8447 101.491 16.3977C100.779 15.9508 99.9384 15.7273 98.9688 15.7273C97.9006 15.7273 96.9763 15.9924 96.196 16.5227C95.4233 17.0455 94.8286 17.7273 94.4119 18.5682C93.9953 19.4091 93.7869 20.3106 93.7869 21.2727V22.8182C93.7869 24.1364 94.0142 25.2538 94.4688 26.1705C94.9309 27.0795 95.571 27.7727 96.3892 28.25C97.2074 28.7197 98.1581 28.9545 99.2415 28.9545C99.946 28.9545 100.582 28.8561 101.151 28.6591C101.726 28.4545 102.223 28.1515 102.639 27.75C103.056 27.3409 103.378 26.8333 103.605 26.2273L106.196 26.9545C105.923 27.8333 105.465 28.6061 104.821 29.2727C104.177 29.9318 103.382 30.447 102.435 30.8182C101.488 31.1818 100.423 31.3636 99.2415 31.3636ZM117.139 31.3636C115.685 31.3636 114.401 30.9962 113.287 30.2614C112.173 29.5189 111.302 28.4735 110.673 27.125C110.045 25.7689 109.73 24.1667 109.73 22.3182C109.73 20.4848 110.045 18.8939 110.673 17.5455C111.302 16.197 112.177 15.1553 113.298 14.4205C114.42 13.6856 115.715 13.3182 117.185 13.3182C118.321 13.3182 119.219 13.5076 119.878 13.8864C120.545 14.2576 121.052 14.6818 121.401 15.1591C121.757 15.6288 122.033 16.0152 122.23 16.3182H122.457V7.72727H125.139V31H122.548V28.3182H122.23C122.033 28.6364 121.753 29.0379 121.389 29.5227C121.026 30 120.507 30.428 119.832 30.8068C119.158 31.178 118.26 31.3636 117.139 31.3636ZM117.503 28.9545C118.579 28.9545 119.488 28.6742 120.23 28.1136C120.973 27.5455 121.537 26.7614 121.923 25.7614C122.31 24.7538 122.503 23.5909 122.503 22.2727C122.503 20.9697 122.313 19.8295 121.935 18.8523C121.556 17.8674 120.995 17.1023 120.253 16.5568C119.51 16.0038 118.594 15.7273 117.503 15.7273C116.366 15.7273 115.42 16.0189 114.662 16.6023C113.912 17.178 113.348 17.9621 112.969 18.9545C112.598 19.9394 112.412 21.0455 112.412 22.2727C112.412 23.5152 112.601 24.6439 112.98 25.6591C113.366 26.6667 113.935 27.4697 114.685 28.0682C115.442 28.6591 116.382 28.9545 117.503 28.9545Z" fill="#07235F"/>
<path d="M75.4545 48.8636V38.5455H78.1364V56H75.4545V53.0455H75.2727C74.8636 53.9318 74.2273 54.6856 73.3636 55.3068C72.5 55.9205 71.4091 56.2273 70.0909 56.2273C69 56.2273 68.0303 55.9886 67.1818 55.5114C66.3333 55.0265 65.6667 54.2992 65.1818 53.3295C64.697 52.3523 64.4545 51.1212 64.4545 49.6364V38.5455H67.1364V49.4545C67.1364 50.7273 67.4924 51.7424 68.2045 52.5C68.9242 53.2576 69.8409 53.6364 70.9545 53.6364C71.6212 53.6364 72.2992 53.4659 72.9886 53.125C73.6856 52.7841 74.2689 52.2614 74.7386 51.5568C75.2159 50.8523 75.4545 49.9545 75.4545 48.8636ZM83.0483 56V38.5455H85.7301V56H83.0483ZM84.4119 35.6364C83.8892 35.6364 83.4384 35.4583 83.0597 35.1023C82.6884 34.7462 82.5028 34.3182 82.5028 33.8182C82.5028 33.3182 82.6884 32.8902 83.0597 32.5341C83.4384 32.178 83.8892 32 84.4119 32C84.9347 32 85.3816 32.178 85.7528 32.5341C86.1316 32.8902 86.321 33.3182 86.321 33.8182C86.321 34.3182 86.1316 34.7462 85.7528 35.1023C85.3816 35.4583 84.9347 35.6364 84.4119 35.6364ZM90.642 56V38.5455H93.233V41.1818H93.4148C93.733 40.3182 94.3087 39.6174 95.142 39.0795C95.9754 38.5417 96.9148 38.2727 97.9602 38.2727C98.1572 38.2727 98.4034 38.2765 98.6989 38.2841C98.9943 38.2917 99.2178 38.303 99.3693 38.3182V41.0455C99.2784 41.0227 99.0701 40.9886 98.7443 40.9432C98.4261 40.8902 98.089 40.8636 97.733 40.8636C96.8845 40.8636 96.1269 41.0417 95.4602 41.3977C94.8011 41.7462 94.2784 42.2311 93.892 42.8523C93.5133 43.4659 93.3239 44.1667 93.3239 44.9545V56H90.642ZM109.335 56.3636C107.653 56.3636 106.203 55.9924 104.983 55.25C103.771 54.5 102.835 53.4545 102.176 52.1136C101.525 50.7652 101.199 49.197 101.199 47.4091C101.199 45.6212 101.525 44.0455 102.176 42.6818C102.835 41.3106 103.752 40.2424 104.926 39.4773C106.108 38.7045 107.487 38.3182 109.062 38.3182C109.972 38.3182 110.869 38.4697 111.756 38.7727C112.642 39.0758 113.449 39.5682 114.176 40.25C114.903 40.9242 115.483 41.8182 115.915 42.9318C116.347 44.0455 116.562 45.4167 116.562 47.0455V48.1818H103.108V45.8636H113.835C113.835 44.8788 113.638 44 113.244 43.2273C112.858 42.4545 112.305 41.8447 111.585 41.3977C110.873 40.9508 110.032 40.7273 109.062 40.7273C107.994 40.7273 107.07 40.9924 106.29 41.5227C105.517 42.0455 104.922 42.7273 104.506 43.5682C104.089 44.4091 103.881 45.3106 103.881 46.2727V47.8182C103.881 49.1364 104.108 50.2538 104.562 51.1705C105.025 52.0795 105.665 52.7727 106.483 53.25C107.301 53.7197 108.252 53.9545 109.335 53.9545C110.04 53.9545 110.676 53.8561 111.244 53.6591C111.82 53.4545 112.316 53.1515 112.733 52.75C113.15 52.3409 113.472 51.8333 113.699 51.2273L116.29 51.9545C116.017 52.8333 115.559 53.6061 114.915 54.2727C114.271 54.9318 113.475 55.447 112.528 55.8182C111.581 56.1818 110.517 56.3636 109.335 56.3636Z" fill="#2E56AD"/>
</svg>
